<svg xmlns="http://www.w3.org/2000/svg" viewBox="0 0 465 517" fill="#00d1ca"><path d="M433 358c-1 20-18 27-32 35l-60 34-94 55c-17 9-33-3-47-11l-59-34-95-55c-17-9-14-29-14-45V159c0-19 19-27 33-35l59-34 94-55c17-10 33 3 47 11l59 34 95 54c17 10 14 30 14 46v178c0 21 32 21 32 0V180c0-16 1-32-6-47-10-17-23-25-39-35l-57-33L263 8c-39-23-79 10-112 29L36 104c-20 11-36 31-36 55v180c0 17 0 32 9 49 8 16 23 23 38 32l123 71 32 18c21 12 46 9 66-3l116-66c34-20 78-36 81-82 1-21-31-21-32 0zM103 222v-30l130-75 129 75 33-19-162-93-163 93v67l163 94 129-75v66l-129 75-130-75v-28l-33-16v63l163 93 162-93V203l-162 93-130-74z"/></svg>
